<svg width="100" height="100" viewBox="0 0 100 100" fill="none" xmlns="http://www.w3.org/2000/svg">
<path d="M91.2109 11.9141H8.78906C3.94883 11.9141 0 15.8586 0 20.7031V79.2969C0 84.125 3.93125 88.0859 8.78906 88.0859H91.2109C96.0391 88.0859 100 84.1547 100 79.2969V20.7031C100 15.875 96.0687 11.9141 91.2109 11.9141ZM89.9973 17.7734L50.1863 57.5846L10.0311 17.7734H89.9973ZM5.85938 78.0836V21.8885L34.0779 49.865L5.85938 78.0836ZM10.0025 82.2266L38.2389 53.9902L48.1328 63.7992C49.2781 64.9348 51.1264 64.9311 52.267 63.7902L61.9141 54.1432L89.9975 82.2266H10.0025ZM94.1406 78.0834L66.0572 50L94.1406 21.9164V78.0834Z" fill="black"/>
</svg>
