<svg width="100" height="100" viewBox="0 0 100 100" fill="none" xmlns="http://www.w3.org/2000/svg">
<g id="whatsapp 1" clip-path="url(#clip0)">
<path id="Vector" d="M85.5 14.3708C76 5.1875 63.5 0 50.1875 0C11.9792 0 -12.0125 41.3958 7.06667 74.325L0 100L26.3958 93.1167C37.8958 99.3292 47.3167 98.7792 50.2125 99.1458C94.5167 99.1458 116.571 45.5458 85.4375 14.5333L85.5 14.3708Z" fill="#ECEFF1"/>
<path id="Vector_2" d="M50.2792 90.6292L50.2542 90.625H50.1875C36.9292 90.625 28.4583 84.3458 27.625 83.9833L12 88.0458L16.1875 72.8583L15.1917 71.2958C11.0667 64.7292 8.87499 57.1667 8.87499 49.3792C8.87499 12.7417 53.6458 -5.57917 79.5542 20.3167C105.4 45.9417 87.2542 90.6292 50.2792 90.6292Z" fill="#4CAF50"/>
<path id="telefono" d="M72.9458 59.6125L72.9083 59.925C71.6542 59.3 65.5458 56.3125 64.4083 55.9C61.8542 54.9542 62.575 55.75 57.6708 61.3667C56.9417 62.1792 56.2167 62.2417 54.9792 61.6792C53.7292 61.0542 49.7167 59.7417 44.9667 55.4917C41.2667 52.1792 38.7833 48.1167 38.05 46.8667C36.8292 44.7583 39.3833 44.4583 41.7083 40.0583C42.125 39.1833 41.9125 38.4958 41.6042 37.875C41.2917 37.25 38.8042 31.125 37.7625 28.6833C36.7625 26.25 35.7333 26.5583 34.9625 26.5583C32.5625 26.35 30.8083 26.3833 29.2625 27.9917C22.5375 35.3833 24.2333 43.0083 29.9875 51.1167C41.2958 65.9167 47.3208 68.6417 58.3375 72.425C61.3125 73.3708 64.025 73.2375 66.1708 72.9292C68.5625 72.55 73.5333 69.925 74.5708 66.9875C75.6333 64.05 75.6333 61.6125 75.3208 61.05C75.0125 60.4875 74.1958 60.175 72.9458 59.6125Z" fill="#FAFAFA"/>
</g>
<defs>
<clipPath id="clip0">
<rect width="100" height="100" fill="white"/>
</clipPath>
</defs>
</svg>
