<svg width="512" height="448" viewBox="0 0 512 448" fill="none" xmlns="http://www.w3.org/2000/svg">
<path d="M464 224H48C35.2696 224 23.0606 229.057 14.0589 238.059C5.05713 247.061 0 259.27 0 272C0 284.73 5.05713 296.939 14.0589 305.941C23.0606 314.943 35.2696 320 48 320H464C476.73 320 488.939 314.943 497.941 305.941C506.943 296.939 512 284.73 512 272C512 259.27 506.943 247.061 497.941 238.059C488.939 229.057 476.73 224 464 224V224ZM480 352H32C27.7565 352 23.6869 353.686 20.6863 356.686C17.6857 359.687 16 363.757 16 368V384C16 400.974 22.7428 417.252 34.7452 429.255C46.7475 441.257 63.0261 448 80 448H432C448.974 448 465.252 441.257 477.255 429.255C489.257 417.252 496 400.974 496 384V368C496 363.757 494.314 359.687 491.314 356.686C488.313 353.686 484.243 352 480 352ZM58.64 192H453.36C487.93 192 507.98 148.1 488.18 116.12C448 51.2 359.55 0.1 256 0C152.46 0.1 64 51.2 23.82 116.11C4 148.09 24.07 192 58.64 192ZM384 80C387.165 80 390.258 80.9384 392.889 82.6965C395.52 84.4546 397.571 86.9534 398.782 89.8771C399.993 92.8007 400.31 96.0177 399.693 99.1214C399.075 102.225 397.551 105.076 395.314 107.314C393.076 109.551 390.225 111.075 387.121 111.693C384.018 112.31 380.801 111.993 377.877 110.782C374.953 109.571 372.455 107.52 370.696 104.889C368.938 102.258 368 99.1645 368 96C368 91.7565 369.686 87.6869 372.686 84.6863C375.687 81.6857 379.757 80 384 80V80ZM256 48C259.165 48 262.258 48.9384 264.889 50.6965C267.52 52.4546 269.571 54.9534 270.782 57.8771C271.993 60.8007 272.31 64.0177 271.693 67.1214C271.075 70.2251 269.551 73.0761 267.314 75.3137C265.076 77.5513 262.225 79.0752 259.121 79.6926C256.018 80.3099 252.801 79.9931 249.877 78.7821C246.953 77.5711 244.455 75.5203 242.696 72.8891C240.938 70.2579 240 67.1645 240 64C240 59.7565 241.686 55.6869 244.686 52.6863C247.687 49.6857 251.757 48 256 48V48ZM128 80C131.165 80 134.258 80.9384 136.889 82.6965C139.52 84.4546 141.571 86.9534 142.782 89.8771C143.993 92.8007 144.31 96.0177 143.693 99.1214C143.075 102.225 141.551 105.076 139.314 107.314C137.076 109.551 134.225 111.075 131.121 111.693C128.018 112.31 124.801 111.993 121.877 110.782C118.953 109.571 116.455 107.52 114.696 104.889C112.938 102.258 112 99.1645 112 96C112 91.7565 113.686 87.6869 116.686 84.6863C119.687 81.6857 123.757 80 128 80V80Z" fill="#FBAF32"/>
</svg>
