<svg width="512" height="512" viewBox="0 0 512 512" fill="none" xmlns="http://www.w3.org/2000/svg">
<g clip-path="url(#clip0)">
<path d="M488.56 23.4399C473.558 8.44224 453.213 0.0170087 432 0.0170087C410.787 0.0170087 390.442 8.44224 375.44 23.4399L23.44 375.44C15.7992 382.82 9.70463 391.647 5.51191 401.408C1.31919 411.168 -0.887706 421.665 -0.980012 432.288C-1.07232 442.91 0.951819 453.445 4.97429 463.276C8.99676 473.108 14.937 482.04 22.4484 489.552C29.9598 497.063 38.892 503.003 48.7237 507.026C58.5554 511.048 69.0898 513.072 79.7121 512.98C90.3345 512.888 100.832 510.681 110.592 506.488C120.353 502.295 129.18 496.201 136.56 488.56L488.56 136.56C503.558 121.558 511.983 101.213 511.983 79.9999C511.983 58.7868 503.558 38.4421 488.56 23.4399V23.4399ZM438.63 118.63C419.03 138.22 401.11 141.3 386.7 143.77C373.76 146 364.4 147.6 352 160C339.6 172.4 338 181.76 335.77 194.71C333.29 209.11 330.22 227.04 310.62 246.63C291.02 266.22 273.1 269.3 258.7 271.78C245.75 274 236.4 275.6 224 288C211.6 300.4 210 309.75 207.77 322.7C205.3 337.1 202.23 355.03 182.63 374.62C163.03 394.21 145.1 397.3 130.7 399.77C117.76 402 108.4 403.6 96 416C92.9991 419.001 88.929 420.687 84.685 420.687C80.4411 420.687 76.371 419.001 73.37 416C70.3691 412.999 68.6832 408.929 68.6832 404.685C68.6832 400.441 70.3691 396.371 73.37 393.37C92.97 373.78 110.89 370.7 125.29 368.23C138.29 366.01 147.59 364.41 160 352C172.41 339.59 174 330.25 176.22 317.3C178.7 302.9 181.77 284.97 201.37 265.38C220.97 245.79 238.89 242.71 253.29 240.24C266.29 238.02 275.59 236.41 287.99 224.01C300.39 211.61 301.99 202.25 304.23 189.3C306.7 174.9 309.77 156.97 329.37 137.38C348.97 117.79 366.89 114.7 381.29 112.23C394.24 110 403.59 108.41 416 95.9999C419.001 92.999 423.071 91.3131 427.315 91.3131C431.559 91.3131 435.629 92.999 438.63 95.9999C441.631 99.0008 443.317 103.071 443.317 107.315C443.317 111.559 441.631 115.629 438.63 118.63V118.63ZM31.44 322.18L322.18 31.4399L310.64 19.8899C285.64 -5.11007 246.79 -6.77007 223.85 16.1699L16.17 223.85C-6.76998 246.79 -5.09998 285.64 19.89 310.63L31.44 322.18ZM480.56 189.82L189.82 480.56L201.36 492.11C226.36 517.11 265.21 518.77 288.15 495.83L495.83 288.15C518.77 265.21 517.1 226.36 492.11 201.36L480.56 189.82Z" fill="#FBAF32"/>
</g>
<defs>
<clipPath id="clip0">
<rect width="512" height="512" fill="white"/>
</clipPath>
</defs>
</svg>
